<?xml version="1.0" encoding="UTF-8"?>
<svg id="Layer_2" data-name="Layer 2" xmlns="http://www.w3.org/2000/svg" viewBox="0 0 416.05 328.7">
  <defs>
    <style>
      .cls-1 {
        fill: #c4622d;
      }
    </style>
  </defs>
  <g id="Layer_1-2" data-name="Layer 1">
    <g>
      <path class="cls-1" d="M139.32,43.93l-32.39,68.05-30.28-58.64L56.86,15.74l-.07,81.42c0,4.13,1.03,7.97,3.05,11.26,2.12,3.44,5.6,4.2,9.25,5.86l-28.06.04c2.92-1.54,5.73-2,7.74-4.25,2.68-3.01,4.25-7.05,4.25-11.36l.03-80.39c-.39-7.28-4.94-11.19-12.16-12.93l25.38-.18,45.25,88.68L153.98,5.24l23.21.1c-6.89,1.85-11.67,5.87-11.67,13.08v82.38c-.01,7.39,4.63,11.66,11.79,13.47h-35.14c6.66-2.02,11.22-5.86,11.22-12.85l.02-86.07-14.09,28.58Z"/>
      <path class="cls-1" d="M233.85,67.06c-4.05,5.45-10.85,5.38-10.27,12.14-7.3.74-13.45,3.93-18.19,9.31l-5.31,13.31c-.67,7.64,2.09,9.89,9.01,12.53l-26.3-.02c4.26-1.82,7.42-3.63,9.95-7.08,1.98-3.07,3.61-6.05,5.1-9.62L238.57,0l37.83,94.25c1.74,4.33,3.27,8.28,5.91,11.94,2.75,4.2,6.58,6.21,11.58,8.08h-36c6.51-2.12,9.26-6.97,7.64-13.25l-5.65-14.86c-4.37-4.23-9.87-6.37-15.96-7.05.81-6.66-6.28-6.38-10.09-12.07ZM233.81,60.89c1.94,4.25,4.4,6.92,8.02,8.69,2.72,1.5,4.79,3.8,5.44,6.89,3.72.77,6.93,2.05,10.32,3.9l-23.74-60.58-25.63,61.96c3.74-2.71,7.6-4.49,12.08-5.2.58-3.16,2.43-5.46,5.12-6.87,3.82-1.89,6.34-4.78,8.38-8.8Z"/>
      <path class="cls-1" d="M410.92,110.84c-12.07,6.38-31.17,7.38-39.88-3.6l-6.05-7.63-9.13-13.69c-5.6-8.4-11.74-16.05-22.25-16.07l-9.69-.02.04,30.14c0,3.14.89,6.41,2.56,8.86,2.15,3.16,5.49,3.89,9.11,5.49l-35.8-.02c6.72-1.84,11.67-5.62,11.67-12.71l.02-83.52c0-7.13-4.84-10.97-11.7-12.72l46.48.02c7.32,0,14.29,1.26,20.83,3.98,7.59,3.14,12.95,9.13,15.01,17,3.42,13.06.33,26.68-10.89,34.66-6.72,4.77-14.3,6.99-22.8,8.09,11.78,3.49,19.18,11.53,25.89,21.6l7.73,10.52c5.07,5.9,12.08,9.87,19.94,9.75l8.9-.13ZM368.71,26.97c-2.07-6.61-6.54-11.5-12.52-14.87-4.61-2.04-9.51-3.51-14.67-3.54l-17.58-.09v58.05s16.38-.06,16.38-.06c5.44-.02,10.58-1.35,15.43-3.63,12.99-6.71,17.19-22.38,12.96-35.86Z"/>
      <path class="cls-1" d="M0,320.65l2.27-4.2c16.98,10.02,37.57,9.05,47.01-8.61,7.33-13.72,8.59-32.5,8.57-48.65l-.09-104.82c0-10.27-6.52-16.15-16.5-18.74l51.24-.04c-10.26,2.52-16.79,8.57-16.82,18.96l-.34,113.84c-.04,12.41-2.67,24.07-7.51,34.99-12.02,27.12-43.39,31.75-67.84,17.28Z"/>
      <path class="cls-1" d="M183.34,241.74c.71-9.58-9.12-9.51-14.63-17.39-6.04,8.03-15.65,7.98-14.62,17.54-10.44,1-19.27,5.75-25.87,13.66l-7.1,17.82c-.57,4.44-.78,8.57,2.01,12.62,1.91,2.77,5.81,4.24,10.13,6.4l-37.47-.02c6.26-2.62,11.7-4.97,14.75-10.62l6.26-11.61,58.25-142.04,30.88,76.24,26.3,65.56c5.43,11.56,10.06,18.44,22.96,22.44l-51.59-.02c8.82-3.08,13.08-9.68,10.97-18.63l-8.34-22.19c-6.58-5.92-14.27-8.75-22.87-9.76ZM168.69,215.56c3.03,6.24,6.68,10.02,12.03,12.7,3.72,2.19,6.42,5.49,7.23,9.71,5.5,1.01,10.11,2.88,15.09,5.6l-34.4-87.06-35.97,88.61c5.43-3.29,10.54-6.23,16.76-7.06.68-4.38,3.49-7.78,7.33-9.81,5.42-2.88,9.13-6.84,11.93-12.69Z"/>
      <path class="cls-1" d="M411.71,243.15c-10.6,33.03-41.53,49.16-74.94,49.19l-68.91.06c5.05-2.11,9.33-3.29,12.76-7.02,2.63-4.07,4.17-8.49,4.17-13.74l-.05-116.61c0-10.8-6.47-16.76-17.08-19.41l63.87-.03c15.17,0,29.61,3.08,43.26,9.26,18.1,8.19,31.13,22.77,37.02,41.92,5.6,18.24,5.75,38.15-.09,56.38ZM396.97,217.25c.28-31.44-15.2-61.01-45.36-72.14-9.98-3.59-20.13-5.03-30.8-5.01l-18.43.03.06,130.86c0,5.57,2.08,11.07,6.12,14.21,3.89,3.02,8.88,2.61,13.53,2.68,10.43.16,20.3-.17,30.27-2.93,30.8-8.52,44.33-36.98,44.61-67.69Z"/>
      <path class="cls-1" d="M351.13,232.75h-2.89c0-9.56-7.75-17.31-17.31-17.31v-2.89c9.56,0,17.31-7.75,17.31-17.31h2.89c0,9.56,7.75,17.31,17.31,17.31v2.89c-9.56,0-17.31,7.75-17.31,17.31Z"/>
    </g>
  </g>
</svg>