<?xml version="1.0" encoding="UTF-8"?>
<svg id="Layer_2" data-name="Layer 2" xmlns="http://www.w3.org/2000/svg" viewBox="0 0 367.45 367.45">
  <defs>
    <style>
      .cls-1 {
        fill: #d4a853;
      }
    </style>
  </defs>
  <g id="Layer_1-2" data-name="Layer 1">
    <path class="cls-1" d="M361.65,195.27s.01-.01-.01-.01c-.54-.58-1.08-1.12-1.66-1.67-7.83-6.99-12.83-15.14-15.99-24.99-.96-2.91-1.74-5.99-2.41-9.22-2.22,2.45-4.46,4.69-6.78,6.71-7.76,6.83-16.21,11.29-26.53,13.31-.76.16-1.48.35-2.21.57h-.01c-6.71,1.92-12.41,5.67-16.5,11.4,0,0-.03.01-.01.03-1.67,1.47-3.28,3.04-4.85,4.69-2.25-.2-4.46-.31-6.67-.31-.01-.01-.03,0-.04-.01-1.64-.38-3.28-.61-4.91-.71-.75-.38-1.5-.77-2.22-1.16-.64-.35-1.26-.7-1.87-1.06-7.31-5.24-13.25-14.48-23.84-20.27-.36-.41-.7-.84-1.06-1.28.15-.54.29-1.05.45-1.57,7.47-9.52,9.25-20.35,13.87-28.08,0-.01.01-.01.03-.04.42-.55.84-1.12,1.28-1.67.54-.68,1.12-1.32,1.67-1.99,1.42-.73,2.82-1.58,4.15-2.57.01.01.03,0,.03-.01,2.02-.89,4.01-1.84,6-2.92,2.09.9,4.2,1.7,6.32,2.4,6.06,3.66,12.76,4.85,19.7,3.95.76-.09,1.5-.22,2.25-.36,10.26-2.22,19.79-1.48,29.62,1.74,2.93.93,5.88,2.11,8.88,3.47h.01c-.68-3.24-1.18-6.38-1.44-9.43-.35-3.62-.41-7.13-.13-10.59.48-6.36,2.05-12.52,4.92-18.7.32-.73.61-1.45.87-2.19h.01c1.22-3.37,1.89-6.78,1.93-10.21-4.9-8.61-10.46-16.79-16.63-24.46-3.21-1.22-6.61-1.87-10.15-1.98t-.01.01c-.8-.03-1.57-.04-2.37-.01-10.47.6-19.77-1.64-28.97-6.36-2.73-1.38-5.48-2.99-8.24-4.81.16,3.3.16,6.46-.06,9.53-.65,10.31-3.47,19.45-9.34,28.17-.42.65-.8,1.29-1.16,1.96h0c-3.4,6.12-4.76,12.8-3.62,19.76,0,0,0,.03.01.03-.15,2.22-.19,4.46-.12,6.76-1.73,1.44-3.37,2.93-4.92,4.49-.01,0-.03.01-.04.01-1.44.9-2.76,1.89-3.98,2.96-.78.26-1.58.52-2.4.76-.68.2-1.37.41-2.06.58-8.89,1.45-19.61-.87-31.19,2.53-.55-.04-1.09-.12-1.66-.16-.28-.48-.54-.94-.8-1.44-1.44-11.98-7.84-20.93-10.04-29.66-.01,0,0-.01-.01-.04-.09-.68-.19-1.39-.26-2.09-.1-.86-.16-1.71-.23-2.57.49-1.53.87-3.11,1.12-4.76.01,0,.01-.01.01-.03.8-2.05,1.53-4.14,2.16-6.3,2.12-.84,4.17-1.77,6.17-2.77,6.86-1.7,12.45-5.59,16.72-11.13.47-.61.9-1.22,1.34-1.86,5.68-8.82,12.94-15.04,22.17-19.71,2.75-1.41,5.65-2.66,8.75-3.82h-.01c-2.76-1.82-5.32-3.69-7.67-5.65-2.8-2.31-5.33-4.76-7.58-7.39-4.16-4.85-7.39-10.31-9.73-16.72-.29-.74-.6-1.44-.93-2.16h0c-1.51-3.24-3.46-6.13-5.87-8.6-9.4-2.6-19.12-4.47-29.05-5.53-3.12,1.41-5.98,3.37-8.57,5.8h0c-.58.55-1.13,1.09-1.67,1.69-7,7.83-15.15,12.81-24.99,15.98-2.91.96-5.98,1.76-9.22,2.43,2.46,2.22,4.68,4.45,6.7,6.77,6.83,7.76,11.3,16.21,13.31,26.53.17.76.35,1.48.57,2.22h.01c1.9,6.73,5.67,12.41,11.4,16.5v.03c1.5,1.66,3.05,3.28,4.72,4.84-.2,2.25-.31,4.46-.32,6.67v.04c-.39,1.64-.62,3.28-.73,4.91-.38.76-.76,1.5-1.16,2.22-.33.64-.68,1.26-1.05,1.89-5.26,7.29-14.48,13.23-20.27,23.84-.42.35-.86.68-1.28,1.05-.54-.15-1.06-.29-1.58-.45-9.5-7.45-20.34-9.25-28.08-13.87-.01,0-.01-.01-.03-.03-.57-.41-1.13-.84-1.67-1.28-.68-.54-1.34-1.1-1.99-1.66-.74-1.44-1.58-2.83-2.57-4.17,0-.01-.01-.01-.03-.03-.87-2.02-1.84-4.01-2.92-5.98.92-2.11,1.7-4.2,2.41-6.33,3.65-6.04,4.84-12.75,3.95-19.7-.1-.76-.22-1.5-.36-2.25-2.22-10.26-1.48-19.79,1.73-29.62.94-2.93,2.12-5.87,3.49-8.88h-.01c-3.23.67-6.38,1.16-9.41,1.44-3.63.35-7.13.39-10.59.13-6.38-.49-12.54-2.06-18.7-4.94-.74-.32-1.45-.6-2.19-.87h-.01c-3.36-1.23-6.77-1.87-10.21-1.93-8.61,4.9-16.79,10.46-24.48,16.63-1.21,3.2-1.84,6.61-1.95,10.15h0c-.03.8-.03,1.57,0,2.37.6,10.49-1.64,19.77-6.36,28.98-1.38,2.73-2.99,5.46-4.81,8.22,3.3-.16,6.45-.16,9.53.06,10.31.65,19.45,3.47,28.17,9.34.65.42,1.29.8,1.96,1.18h.01c6.1,3.38,12.77,4.76,19.73,3.6,0,0,.03.01.03,0,2.22.13,4.47.17,6.75.1,1.44,1.73,2.93,3.37,4.49,4.94,0,.01.01.01.03.03.89,1.44,1.89,2.76,2.96,3.98.26.8.51,1.6.76,2.4.2.7.39,1.38.58,2.08,1.44,8.88-.89,19.6,2.53,31.18-.06.55-.12,1.1-.17,1.66-.48.28-.94.54-1.42.8-12,1.45-20.93,7.84-29.66,10.04-.01.01-.03.01-.04.01-.7.1-1.39.19-2.09.28-.86.1-1.71.16-2.59.23-1.53-.49-3.11-.89-4.75-1.12-.01-.01-.03-.01-.04-.01-2.05-.81-4.14-1.54-6.31-2.16-.83-2.14-1.76-4.18-2.76-6.19-1.7-6.86-5.61-12.44-11.14-16.72-.6-.46-1.21-.9-1.84-1.34-8.83-5.68-15.05-12.94-19.73-22.17-1.41-2.73-2.66-5.65-3.81-8.73h-.01c-1.82,2.76-3.69,5.33-5.65,7.67-2.31,2.8-4.75,5.33-7.39,7.58-4.85,4.15-10.3,7.41-16.71,9.73-.74.29-1.45.6-2.16.94h-.01c-3.24,1.5-6.13,3.46-8.6,5.85-2.59,9.41-4.46,19.12-5.52,29.07,1.39,3.11,3.36,5.99,5.8,8.56.55.58,1.09,1.13,1.67,1.67,7.83,7,12.81,15.15,15.99,25,.96,2.91,1.74,5.99,2.41,9.22,2.22-2.45,4.46-4.69,6.78-6.71,7.76-6.83,16.21-11.3,26.53-13.31.76-.17,1.48-.35,2.21-.57t.01-.01c6.71-1.9,12.41-5.65,16.5-11.39,0,0,.03-.01.01-.03,1.67-1.48,3.28-3.04,4.85-4.71,2.25.22,4.46.32,6.67.32,0,.01.03,0,.04.01,1.64.38,3.28.61,4.91.71.74.38,1.48.77,2.22,1.16.64.35,1.25.7,1.87,1.05,7.31,5.26,13.25,14.5,23.84,20.28.35.41.7.84,1.05,1.28-.13.54-.28,1.05-.44,1.57-7.47,9.52-9.25,20.35-13.87,28.08,0,.01-.01.01-.03.04-.42.55-.86,1.12-1.29,1.67-.52.68-1.1,1.32-1.66,1.99-1.42.73-2.82,1.58-4.16,2.57-.01-.01-.03,0-.03.01-2.02.87-4.01,1.84-6,2.92-2.09-.9-4.2-1.7-6.32-2.4-6.06-3.66-12.75-4.85-19.7-3.95-.76.09-1.5.2-2.25.35-10.26,2.22-19.79,1.48-29.62-1.73-2.93-.93-5.88-2.11-8.88-3.47h-.01c.68,3.24,1.18,6.38,1.44,9.43.35,3.62.41,7.13.13,10.59-.49,6.36-2.05,12.52-4.92,18.7-.32.73-.61,1.44-.87,2.19h-.01c-1.22,3.34-1.87,6.77-1.93,10.2,4.9,8.63,10.47,16.81,16.65,24.49,3.2,1.22,6.61,1.86,10.14,1.96t.01-.01c.8.03,1.57.04,2.37.01,10.47-.6,19.77,1.64,28.97,6.36,2.73,1.37,5.48,2.99,8.24,4.81-.16-3.31-.16-6.46.04-9.53.67-10.31,3.49-19.45,9.36-28.17.41-.65.8-1.29,1.16-1.96h0c3.4-6.12,4.76-12.8,3.62-19.76,0,0,0-.03-.01-.03.15-2.22.17-4.46.12-6.76,1.73-1.44,3.37-2.93,4.92-4.49.01,0,.03-.01.04-.01,1.44-.9,2.75-1.89,3.98-2.96.78-.28,1.58-.52,2.4-.76.68-.2,1.37-.41,2.06-.6,8.89-1.44,19.61.89,31.19-2.51.55.04,1.09.1,1.66.16.28.48.54.94.8,1.42,1.44,12,7.83,20.93,10.04,29.68.01,0,0,.01.01.03.09.7.19,1.41.26,2.09.1.86.16,1.71.23,2.57-.49,1.54-.87,3.12-1.12,4.78-.01,0-.01.01-.01.03-.8,2.05-1.53,4.14-2.16,6.3-2.12.84-4.17,1.77-6.17,2.77-6.86,1.7-12.45,5.59-16.72,11.13-.47.61-.92,1.22-1.34,1.84-5.69,8.83-12.94,15.05-22.17,19.73-2.75,1.41-5.65,2.66-8.75,3.82h0c2.76,1.82,5.33,3.69,7.68,5.65,2.8,2.31,5.33,4.76,7.57,7.39,4.17,4.85,7.41,10.31,9.75,16.71.28.74.6,1.45.93,2.16h0c1.51,3.24,3.46,6.13,5.85,8.6,9.41,2.6,19.13,4.47,29.08,5.53,3.12-1.39,5.99-3.36,8.56-5.78h0c.58-.55,1.13-1.1,1.67-1.69,7-7.83,15.15-12.81,24.99-15.98,2.91-.96,5.99-1.76,9.22-2.43-2.45-2.22-4.68-4.46-6.7-6.77-6.83-7.76-11.3-16.21-13.31-26.53-.17-.76-.35-1.48-.57-2.22h-.01c-1.9-6.73-5.67-12.41-11.4-16.52h-.01c-1.48-1.67-3.04-3.3-4.71-4.87.2-2.24.31-4.45.32-6.65v-.04c.39-1.66.62-3.3.73-4.92.36-.74.76-1.48,1.15-2.22.35-.62.7-1.25,1.06-1.87,5.26-7.29,14.48-13.23,20.27-23.84.42-.35.86-.7,1.28-1.05.54.15,1.06.29,1.58.45,9.5,7.45,20.34,9.25,28.08,13.87.01,0,.01.01.03.01.57.42,1.12.86,1.67,1.29.68.54,1.34,1.1,1.99,1.66.73,1.44,1.58,2.83,2.57,4.17h.01c.89,2.05,1.84,4.04,2.93,6.01-.92,2.09-1.71,4.2-2.41,6.33-3.65,6.04-4.85,12.75-3.95,19.68.09.77.22,1.5.36,2.27,2.22,10.26,1.48,19.79-1.73,29.62-.94,2.92-2.12,5.87-3.49,8.88h.01c3.23-.67,6.36-1.16,9.41-1.44,3.62-.35,7.13-.41,10.59-.13,6.38.49,12.52,2.05,18.7,4.94.73.32,1.45.6,2.19.87h.01c3.34,1.22,6.75,1.87,10.18,1.93,8.63-4.9,16.82-10.47,24.51-16.65,1.21-3.2,1.84-6.6,1.95-10.14h0c.03-.8.03-1.58,0-2.37-.6-10.49,1.64-19.77,6.36-28.98,1.38-2.73,2.99-5.46,4.81-8.24-3.3.17-6.46.17-9.53-.04-10.31-.67-19.45-3.47-28.17-9.36-.65-.41-1.29-.8-1.96-1.16h-.01c-6.1-3.4-12.77-4.76-19.73-3.6,0,0-.03-.01-.03,0-2.22-.13-4.47-.17-6.75-.1-1.44-1.74-2.93-3.37-4.49-4.94,0-.01-.03-.03-.03-.03-.89-1.44-1.89-2.76-2.96-3.98-.26-.8-.52-1.6-.76-2.4-.2-.7-.39-1.38-.58-2.08-1.45-8.88.89-19.61-2.53-31.19.04-.54.12-1.09.16-1.64.48-.28.96-.55,1.44-.8,12-1.45,20.93-7.84,29.66-10.05h.04c.68-.1,1.39-.19,2.09-.28.86-.1,1.71-.16,2.57-.23,1.54.49,3.12.89,4.77,1.12,0,.01.01.01.03.01,2.06.81,4.15,1.54,6.32,2.16.83,2.14,1.76,4.18,2.76,6.19,1.7,6.86,5.59,12.44,11.14,16.71.6.48,1.21.92,1.84,1.35,8.83,5.68,15.03,12.94,19.71,22.17,1.41,2.73,2.67,5.65,3.82,8.73h.01c1.8-2.76,3.68-5.33,5.64-7.67,2.32-2.82,4.77-5.33,7.41-7.58,4.85-4.15,10.3-7.41,16.71-9.73.74-.29,1.45-.6,2.16-.94h.01c3.23-1.5,6.12-3.44,8.59-5.85,2.6-9.41,4.47-19.12,5.54-29.07-1.41-3.11-3.36-5.99-5.8-8.56ZM274.53,110.22c.19-1.55.42-3.12.71-4.66.15-.71.28-1.42.44-2.12-.01-.01,0-.03,0-.04,2.76-8.57,9.7-17.05,11.91-28.92h0c.28-.48.58-.92.89-1.37l1.63-.07h.01c11.36,4.18,22.26,2.51,31.04,4.56h.01c.67.2,1.31.45,1.96.68,1.42.52,2.85,1.09,4.26,1.71.01-.01.01,0,.03.03,1.48.87,2.88,2,4.15,3.41.81,1.7,1.35,3.37,1.61,5.06.01.03.01.06.01.09t-.01.03c.06,1.54.07,3.04.04,4.55-.01.74-.04,1.47-.1,2.19,0,.01-.01.03,0,.04-1.41,8.88-6.92,18.35-7.23,30.38h0s-.67,1.51-.67,1.51c-.54.12-1.06.23-1.58.32-11.85-2.34-22.33.97-31.31.36-.73-.1-1.44-.25-2.15-.39-1.54-.29-3.08-.65-4.6-1.06-2.91-1.18-5.61-3.15-8.12-6.36-2.05-3.52-2.91-6.75-2.93-9.88,0-.01.01-.03,0-.04ZM127.95,75.11c-.12.73-.25,1.44-.39,2.16-.31,1.54-.65,3.08-1.06,4.61-1.18,2.91-3.17,5.61-6.36,8.11-3.52,2.06-6.77,2.92-9.89,2.95-.01,0-.01-.01-.03-.01-1.57-.19-3.12-.42-4.68-.71-.7-.13-1.41-.28-2.11-.42-.01,0-.04-.01-.06-.01-8.56-2.75-17.06-9.7-28.91-11.9,0,0,0-.01-.01-.01-.46-.28-.92-.57-1.37-.87l-.06-1.64h0c4.17-11.37,2.51-22.26,4.55-31.04h0c.22-.68.45-1.32.7-1.99.51-1.42,1.08-2.85,1.71-4.26t.01-.03c.89-1.48,2-2.86,3.43-4.14,1.69-.83,3.37-1.35,5.04-1.63h.13c1.53-.06,3.04-.07,4.55-.03.73.01,1.45.04,2.19.09h.03c8.89,1.41,18.36,6.91,30.38,7.25,0,0,.01,0,.03-.01l1.48.67c.13.54.23,1.06.32,1.58-2.34,11.85.99,22.33.38,31.31ZM72.48,162.4c-1.03,3.95-2.73,6.84-4.92,9.08,0,.01-.01,0-.01.01-1.23.97-2.51,1.92-3.81,2.8-.61.41-1.21.81-1.8,1.19-.01.01-.03.01-.04.03-8,4.11-18.93,5.2-28.87,12.03,0,0-.01,0-.01.01-.52.12-1.05.23-1.58.33l-1.21-1.1v-.03c-5.08-10.98-13.96-17.49-18.73-25.16h-.01c-.32-.62-.61-1.25-.9-1.89-.65-1.37-1.25-2.77-1.8-4.21-.01,0-.01-.01,0-.04-.44-1.67-.61-3.44-.52-5.35.61-1.79,1.42-3.34,2.43-4.72.03-.03.03-.04.06-.07t.03-.01c1.05-1.12,2.09-2.19,3.18-3.24.54-.51,1.08-1,1.63-1.5.01,0,.03,0,.03-.01,7.28-5.29,17.87-8.09,26.6-16.36,0,0,.01,0,.01-.01l1.53-.58c.46.29.9.58,1.34.89,6.73,10.04,16.49,15.09,22.4,21.88.44.6.84,1.19,1.25,1.8.87,1.31,1.71,2.64,2.5,4.01,1.23,2.88,1.74,6.19,1.25,10.23ZM92.9,257.23c-.17,1.57-.42,3.14-.71,4.68-.13.71-.26,1.42-.42,2.12.01.01,0,.03,0,.04-2.76,8.57-9.72,17.05-11.91,28.92h0c-.28.46-.58.92-.89,1.37l-1.63.07h-.01c-11.37-4.18-22.26-2.51-31.04-4.56h-.01c-.67-.22-1.31-.45-1.96-.68-1.42-.52-2.85-1.09-4.26-1.71-.01.01-.01,0-.03-.03-1.5-.87-2.86-2-4.14-3.41-.83-1.69-1.37-3.37-1.63-5.06-.01-.03-.01-.06-.01-.09t.01-.03c-.06-1.54-.07-3.04-.04-4.55.01-.74.04-1.47.1-2.21,0,0,.01-.01,0-.03,1.41-8.88,6.91-18.35,7.23-30.38h0s.67-1.51.67-1.51c.54-.12,1.06-.23,1.58-.32,11.85,2.34,22.33-.97,31.31-.38.73.12,1.44.26,2.15.39,1.54.31,3.08.67,4.6,1.07,2.91,1.16,5.61,3.15,8.12,6.35,2.05,3.52,2.91,6.77,2.93,9.89,0,.01-.01.03-.01.03ZM239.49,292.36c.12-.73.25-1.44.39-2.16.31-1.54.65-3.08,1.06-4.61,1.18-2.91,3.15-5.61,6.36-8.12,3.52-2.05,6.77-2.91,9.89-2.93.01,0,.01.01.03.01,1.57.17,3.12.42,4.66.71.71.13,1.42.26,2.12.42.01,0,.04.01.04,0,8.57,2.76,17.07,9.72,28.92,11.91,0,0,0,.01.01.01.46.28.92.57,1.35.87l.07,1.64h0c-4.17,11.37-2.51,22.26-4.55,31.04h0c-.22.68-.46,1.32-.7,1.98-.52,1.44-1.09,2.86-1.71,4.26.01.01,0,.01-.03.04-.87,1.48-2.01,2.86-3.41,4.14-1.69.83-3.37,1.35-5.04,1.61-.04.01-.06.01-.1.01h-.03c-1.53.04-3.04.07-4.55.03-.73-.01-1.47-.04-2.19-.09-.01-.01-.03-.01-.03,0-8.89-1.41-18.36-6.91-30.39-7.25h-.01l-1.5-.67c-.12-.52-.22-1.05-.31-1.57,2.34-11.85-.99-22.33-.38-31.31ZM195.97,67.57s0-.01-.01-.03c-.97-1.23-1.9-2.51-2.79-3.81-.41-.6-.81-1.19-1.21-1.8-.01,0-.01-.03-.03-.03-4.11-8-5.19-18.93-12.03-28.88h0c-.13-.54-.23-1.06-.33-1.6l1.1-1.19h.01c10.98-5.1,17.51-13.98,25.16-18.74h0c.64-.33,1.25-.61,1.89-.92,1.38-.64,2.79-1.25,4.23-1.79-.01-.03,0-.01.03-.01,1.69-.42,3.46-.61,5.36-.51,1.77.61,3.33,1.42,4.71,2.43.03.01.06.03.07.06t.01.01c1.12,1.05,2.21,2.11,3.24,3.2.51.54,1.02,1.06,1.5,1.61,0,.01,0,.03.01.03,5.29,7.28,8.09,17.87,16.37,26.6,0,0,0,.01.01.01l.58,1.53c-.29.46-.58.92-.9,1.35-10.02,6.73-15.09,16.47-21.86,22.4-.6.42-1.19.83-1.82,1.23-1.29.89-2.63,1.73-3.99,2.51-2.89,1.22-6.2,1.73-10.24,1.23-3.94-1.03-6.84-2.72-9.08-4.91ZM171.48,299.9s0,.01.01.03c.97,1.23,1.9,2.51,2.79,3.81.41.6.81,1.19,1.21,1.8.01,0,.01.03.03.03,4.1,8,5.19,18.93,12.03,28.87,0,0-.01.01,0,.03.13.51.23,1.03.33,1.57l-1.1,1.21h-.01c-10.98,5.1-17.5,13.98-25.16,18.74h0c-.64.33-1.26.61-1.89.92-1.38.64-2.79,1.25-4.23,1.79.01.03,0,.01-.03.01-1.69.42-3.44.61-5.35.51-1.79-.61-3.34-1.42-4.72-2.43-.04-.01-.06-.03-.07-.06t-.01-.03c-1.13-1.05-2.21-2.09-3.24-3.18-.52-.54-1.02-1.07-1.5-1.63,0-.01,0-.03-.01-.01-5.29-7.28-8.09-17.87-16.37-26.61h-.01l-.58-1.53c.29-.46.58-.92.9-1.35,10.02-6.73,15.09-16.47,21.86-22.4.6-.44,1.19-.84,1.8-1.25,1.31-.87,2.64-1.71,4.01-2.5,2.89-1.22,6.2-1.73,10.24-1.25,3.94,1.05,6.84,2.73,9.08,4.92ZM258,198.08h-.01c-.7.33-1.38.68-2.06,1.06-9.08,5.3-18.39,7.53-28.72,7.5-3.08,0-6.25-.19-9.52-.57h0c1.64,2.86,3.07,5.69,4.29,8.53,1.44,3.33,2.59,6.65,3.4,10.02,1.51,6.2,1.89,12.55,1.07,19.32-.07.77-.13,1.54-.14,2.31-.01.07,0,.15,0,.22-.07-.01-.13-.06-.2-.07h-.01c-.73-.26-1.45-.49-2.21-.71-10.17-2.69-18.32-7.68-25.6-15.02-2.18-2.16-4.29-4.53-6.33-7.12h-.01c-.86,3.18-1.84,6.19-2.99,9.05-1.32,3.37-2.88,6.54-4.68,9.5-3.33,5.46-7.54,10.21-12.9,14.43-.61.49-1.19.99-1.74,1.53-.06.04-.1.1-.16.16-.03-.07-.04-.13-.07-.2h-.01c-.32-.7-.67-1.38-1.06-2.08-5.29-9.08-7.51-18.38-7.48-28.71-.01-3.08.17-6.25.55-9.52h-.01c-2.85,1.63-5.67,3.07-8.5,4.27-3.33,1.44-6.67,2.6-10.02,3.4-6.22,1.51-12.55,1.9-19.32,1.09-.78-.09-1.55-.13-2.32-.16h-.22c.03-.06.06-.13.09-.19,0-.01-.01-.01-.01-.01.28-.73.51-1.45.73-2.21,2.67-10.17,7.68-18.32,15.01-25.6,2.18-2.19,4.55-4.3,7.12-6.35-3.18-.87-6.19-1.84-9.05-2.99-3.37-1.34-6.54-2.88-9.49-4.69-5.46-3.31-10.23-7.53-14.43-12.89-.49-.61-1-1.19-1.54-1.74-.04-.06-.1-.1-.15-.16.06-.03.13-.06.19-.09.01,0,.01-.01.01-.01.7-.32,1.38-.67,2.06-1.05,9.08-5.3,18.39-7.53,28.72-7.5,3.08,0,6.25.19,9.5.55h.01c-1.64-2.86-3.07-5.68-4.29-8.51-1.44-3.33-2.59-6.65-3.4-10.02-1.51-6.22-1.89-12.55-1.08-19.32.07-.78.13-1.54.15-2.31v-.22c.07.01.13.04.2.07h.01c.71.26,1.45.49,2.21.71,10.17,2.67,18.32,7.68,25.6,15.01,2.18,2.18,4.29,4.55,6.33,7.12h.01c.86-3.17,1.84-6.17,2.98-9.04,1.34-3.38,2.89-6.55,4.69-9.5,3.33-5.46,7.54-10.21,12.9-14.43.61-.49,1.18-1,1.74-1.53.06-.06.1-.1.15-.16.04.07.06.13.09.2h.01c.32.7.67,1.38,1.06,2.06,5.29,9.09,7.51,18.39,7.48,28.72.01,3.08-.17,6.25-.55,9.52h.01c2.85-1.63,5.67-3.07,8.5-4.27,3.33-1.45,6.67-2.6,10.02-3.4,6.22-1.53,12.55-1.9,19.32-1.09.78.09,1.55.13,2.32.16.07,0,.15-.01.22,0-.03.06-.06.13-.09.19h.01c-.28.74-.51,1.47-.73,2.22-2.67,10.17-7.68,18.32-15.01,25.6-2.18,2.19-4.55,4.3-7.12,6.33h0c3.18.87,6.19,1.86,9.05,3.01,3.37,1.34,6.54,2.88,9.49,4.68,5.46,3.33,10.23,7.54,14.43,12.9.49.61,1,1.19,1.53,1.74.06.06.12.1.16.16-.06.03-.13.06-.19.09ZM359.2,217.35c-.61,1.79-1.42,3.34-2.43,4.72-.03.03-.04.04-.06.06t-.03.03c-1.05,1.12-2.11,2.19-3.2,3.24-.52.51-1.06,1-1.61,1.48-.01.01-.03.01-.03.03-7.28,5.27-17.87,8.09-26.6,16.36,0,0-.01,0-.01.01l-1.53.58c-.46-.29-.9-.58-1.34-.89-6.73-10.04-16.49-15.11-22.4-21.88-.44-.6-.84-1.19-1.25-1.8-.89-1.31-1.71-2.64-2.5-4.01-1.23-2.88-1.74-6.2-1.25-10.24,1.03-3.94,2.73-6.84,4.91-9.06.01-.01.03,0,.03-.01,1.23-.99,2.51-1.92,3.81-2.8.61-.41,1.21-.81,1.8-1.19.01-.01.03-.03.04-.03,8-4.11,18.93-5.2,28.86-12.03,0,0,.01,0,.01-.01.52-.13,1.05-.23,1.58-.33l1.21,1.1v.03c5.08,10.97,13.96,17.49,18.73,25.15h.01c.32.64.61,1.26.9,1.89.64,1.38,1.25,2.79,1.8,4.23.01,0,.01.01,0,.04.44,1.67.61,3.44.52,5.35Z"/>
  </g>
</svg>